<svg id="Calque_1" data-name="Calque 1" xmlns="http://www.w3.org/2000/svg" viewBox="0 0 140 210"><defs><style>.cls-1{fill:#35495e;}</style></defs><title>Plan de travail 4</title><path class="cls-1" d="M106.52,92.69a41.16,41.16,0,0,0-4.77-8.48L42.66,10.42a6.82,6.82,0,0,0-9.59-1.06L33,9.45A6.82,6.82,0,0,0,31.89,19L90.6,92.34h0A25.83,25.83,0,0,1,59.13,131l26.1-29.57H45.46a27.16,27.16,0,0,1,8.94-13.78,25.89,25.89,0,0,1,6-3.64v-.1a7,7,0,0,0-2.54-13.54,6.94,6.94,0,0,0-2.8.58c-.59.24-1.18.49-1.75.76a39.29,39.29,0,0,0-22.67,35.82v7H54.84L39,132.72l5.22,4.5a39.36,39.36,0,0,0,62.31-44.53Z"/><path class="cls-1" d="M70,147.4a39.58,39.58,0,0,1-26.06-9.8l-5.54-5.05,15.51-18H30.24v-7.22A39.79,39.79,0,0,1,53.15,71.18c.51-.24,1.07-.4,1.77-.68a7.3,7.3,0,0,1,3-.57,7.45,7.45,0,0,1,3,14.25v.07l-.28.12a27.53,27.53,0,0,0-5.91,3.87A25.77,25.77,0,0,0,46,101.47H86.17L59.83,131.1A25.45,25.45,0,0,0,90.24,92.63L90,92.3l-58.44-73A7.26,7.26,0,0,1,32.69,9.12L32.8,9A7.26,7.26,0,0,1,43,10.15l59.09,73.79a41.38,41.38,0,0,1,4.84,8.59,40.12,40.12,0,0,1-12,46.1A39.87,39.87,0,0,1,70,147.4ZM39.6,132.89,44.48,137a38.87,38.87,0,0,0,49.91,1,39.27,39.27,0,0,0,11.73-45.13v0a41.41,41.41,0,0,0-4.7-8.36L42.32,10.69a6.41,6.41,0,0,0-9-1l-.11.09a6.41,6.41,0,0,0-1,9l59,73.68,0,0a26,26,0,0,1,2.75,25.18,26.28,26.28,0,0,1-35,13.62l-.51-.3,25.85-29.5H44.91l.14-.48a25.75,25.75,0,0,1,9.09-13.82A26.31,26.31,0,0,1,60,83.68v-.06l.29-.11a6.57,6.57,0,0,0-2.38-12.69,6.5,6.5,0,0,0-2.63.55c-.7.28-1.25.52-1.74.75a39.31,39.31,0,0,0-22.42,35.65v6.79H55.78Z"/><path class="cls-1" d="M27.91,172.24a9.84,9.84,0,0,1,3.62,3.95,11.28,11.28,0,0,1,0,10.17,9.84,9.84,0,0,1-3.62,3.95A10.7,10.7,0,0,1,22,191.83H16a1.34,1.34,0,0,1-1.36-1.36V172.1a1.37,1.37,0,0,1,.39-1,1.29,1.29,0,0,1,1-.41H22A10.7,10.7,0,0,1,27.91,172.24Zm-1.83,16A7.23,7.23,0,0,0,29,185.43a8.93,8.93,0,0,0,0-8.32,7.24,7.24,0,0,0-2.91-2.81,9,9,0,0,0-4.36-1H17.36v16h4.36A9,9,0,0,0,26.07,188.25Z"/><path class="cls-1" d="M22.05,170.71a10.7,10.7,0,0,1,5.86,1.53,9.84,9.84,0,0,1,3.62,3.95,11.28,11.28,0,0,1,0,10.17,9.84,9.84,0,0,1-3.62,3.95,10.7,10.7,0,0,1-5.86,1.53H16a1.34,1.34,0,0,1-1.36-1.36V172.1a1.37,1.37,0,0,1,.39-1,1.29,1.29,0,0,1,1-.41h6.08m-4.69,18.55h4.36a9,9,0,0,0,4.36-1A7.23,7.23,0,0,0,29,185.43a8.93,8.93,0,0,0,0-8.32,7.24,7.24,0,0,0-2.91-2.81,9,9,0,0,0-4.36-1H17.36v16m4.69-19H16a1.71,1.71,0,0,0-1.28.54,1.78,1.78,0,0,0-.51,1.28v18.37A1.77,1.77,0,0,0,16,192.26h6.08a11.17,11.17,0,0,0,6.08-1.59,10.3,10.3,0,0,0,3.77-4.12,11.71,11.71,0,0,0,0-10.55,10.31,10.31,0,0,0-3.77-4.12,11.17,11.17,0,0,0-6.08-1.59Zm-4.26,3.43h3.93a8.65,8.65,0,0,1,4.16,1,6.85,6.85,0,0,1,2.74,2.65,8.5,8.5,0,0,1,0,7.9,6.84,6.84,0,0,1-2.74,2.65,8.64,8.64,0,0,1-4.16,1H17.79V173.71Z"/><path class="cls-1" d="M51.72,189.64a1.26,1.26,0,0,1,.38.92,1.21,1.21,0,0,1-.38.91,1.28,1.28,0,0,1-.92.36H38.66a1.34,1.34,0,0,1-1.36-1.36V172.1a1.37,1.37,0,0,1,.39-1,1.29,1.29,0,0,1,1-.41H50.8a1.29,1.29,0,0,1,1.3,1.3,1.21,1.21,0,0,1-.38.91,1.28,1.28,0,0,1-.92.36H40.06V180h9.65a1.29,1.29,0,0,1,1.3,1.3,1.21,1.21,0,0,1-.38.91,1.28,1.28,0,0,1-.92.36H40.06v6.72H50.8A1.26,1.26,0,0,1,51.72,189.64Z"/><path class="cls-1" d="M50.8,170.71a1.29,1.29,0,0,1,1.3,1.3,1.21,1.21,0,0,1-.38.91,1.28,1.28,0,0,1-.92.36H40.06V180h9.65a1.29,1.29,0,0,1,1.3,1.3,1.21,1.21,0,0,1-.38.91,1.28,1.28,0,0,1-.92.36H40.06v6.72H50.8a1.29,1.29,0,0,1,1.3,1.3,1.21,1.21,0,0,1-.38.91,1.28,1.28,0,0,1-.92.36H38.66a1.34,1.34,0,0,1-1.36-1.36V172.1a1.37,1.37,0,0,1,.39-1,1.29,1.29,0,0,1,1-.41H50.8m0-.43H38.66a1.71,1.71,0,0,0-1.28.54,1.78,1.78,0,0,0-.51,1.28v18.37a1.77,1.77,0,0,0,1.79,1.79H50.8a1.7,1.7,0,0,0,1.22-.48,1.62,1.62,0,0,0,.51-1.22,1.72,1.72,0,0,0-1.73-1.73H40.48V183h9.23a1.7,1.7,0,0,0,1.22-.48,1.62,1.62,0,0,0,.51-1.22,1.72,1.72,0,0,0-1.73-1.73H40.48v-5.83H50.8a1.7,1.7,0,0,0,1.22-.48,1.62,1.62,0,0,0,.51-1.22,1.72,1.72,0,0,0-1.73-1.73Z"/><path class="cls-1" d="M79.4,171.15a2,2,0,0,1,.57,1.41v18.07A1.34,1.34,0,0,1,78.61,192a1.37,1.37,0,0,1-1-.39,1.29,1.29,0,0,1-.41-1V173.43l-7,17.28a2,2,0,0,1-.77.92,2.13,2.13,0,0,1-2.33,0,2,2,0,0,1-.77-.92l-7-17.28v17.19a1.29,1.29,0,0,1-.41,1,1.37,1.37,0,0,1-1,.39,1.34,1.34,0,0,1-1.36-1.36V172.55a1.94,1.94,0,0,1,.57-1.41,1.87,1.87,0,0,1,1.39-.59h1a1.84,1.84,0,0,1,1.1.36,2.23,2.23,0,0,1,.74.91L68.29,189l6.87-17.13a2.23,2.23,0,0,1,.74-.91,1.84,1.84,0,0,1,1.1-.36h1A1.87,1.87,0,0,1,79.4,171.15Z"/><path class="cls-1" d="M78,170.56a1.87,1.87,0,0,1,1.39.59,2,2,0,0,1,.57,1.41v18.07A1.34,1.34,0,0,1,78.61,192a1.37,1.37,0,0,1-1-.39,1.29,1.29,0,0,1-.41-1V173.43l-7,17.28a2,2,0,0,1-.77.92,2.13,2.13,0,0,1-2.33,0,2,2,0,0,1-.77-.92l-7-17.28v17.19a1.29,1.29,0,0,1-.41,1,1.37,1.37,0,0,1-1,.39,1.34,1.34,0,0,1-1.36-1.36V172.55a1.94,1.94,0,0,1,.57-1.41,1.87,1.87,0,0,1,1.39-.59h1a1.84,1.84,0,0,1,1.1.36,2.23,2.23,0,0,1,.74.91L68.29,189l6.87-17.13a2.23,2.23,0,0,1,.74-.91,1.84,1.84,0,0,1,1.1-.36h1m0-.43H77a2.26,2.26,0,0,0-1.36.44,2.66,2.66,0,0,0-.88,1.08l-6.48,16.16-6.47-16.14a2.67,2.67,0,0,0-.89-1.09,2.26,2.26,0,0,0-1.36-.44h-1a2.29,2.29,0,0,0-1.7.72,2.37,2.37,0,0,0-.7,1.7v18.07A1.77,1.77,0,0,0,58,192.41a1.79,1.79,0,0,0,1.28-.51,1.71,1.71,0,0,0,.54-1.28v-15L66,190.87a2.45,2.45,0,0,0,.93,1.12,2.55,2.55,0,0,0,2.8,0,2.46,2.46,0,0,0,.93-1.11l6.17-15.25v15a1.71,1.71,0,0,0,.54,1.28,1.79,1.79,0,0,0,1.28.51,1.77,1.77,0,0,0,1.79-1.79V172.55a2.37,2.37,0,0,0-.7-1.7,2.29,2.29,0,0,0-1.7-.72Z"/><path class="cls-1" d="M100.75,171.8a9.64,9.64,0,0,1,3.69,3.86,12.13,12.13,0,0,1,0,11.23,9.64,9.64,0,0,1-3.69,3.86,11.8,11.8,0,0,1-11.12,0,9.53,9.53,0,0,1-3.69-3.84,12.31,12.31,0,0,1,0-11.26,9.53,9.53,0,0,1,3.69-3.84,11.8,11.8,0,0,1,11.12,0ZM99.4,188.47a7.16,7.16,0,0,0,2.72-3,10,10,0,0,0,0-8.47,7.16,7.16,0,0,0-2.72-3,8.69,8.69,0,0,0-8.43,0,7.19,7.19,0,0,0-2.71,3,10,10,0,0,0,0,8.47,7.18,7.18,0,0,0,2.71,3,8.69,8.69,0,0,0,8.43,0Z"/><path class="cls-1" d="M95.19,170.41a10.78,10.78,0,0,1,5.55,1.39,9.64,9.64,0,0,1,3.69,3.86,12.13,12.13,0,0,1,0,11.23,9.64,9.64,0,0,1-3.69,3.86,11.8,11.8,0,0,1-11.12,0,9.53,9.53,0,0,1-3.69-3.84,12.31,12.31,0,0,1,0-11.26,9.53,9.53,0,0,1,3.69-3.84,10.87,10.87,0,0,1,5.57-1.39m0,19.16a7.92,7.92,0,0,0,4.21-1.09,7.16,7.16,0,0,0,2.72-3,10,10,0,0,0,0-8.47,7.16,7.16,0,0,0-2.72-3,8.69,8.69,0,0,0-8.43,0,7.19,7.19,0,0,0-2.71,3,10,10,0,0,0,0,8.47,7.18,7.18,0,0,0,2.71,3,7.9,7.9,0,0,0,4.22,1.09m0-19.58a11.33,11.33,0,0,0-5.78,1.45,10,10,0,0,0-3.85,4,12.74,12.74,0,0,0,0,11.66,10,10,0,0,0,3.85,4,12.22,12.22,0,0,0,11.55,0,10.1,10.1,0,0,0,3.85-4,12.56,12.56,0,0,0,0-11.63,10.11,10.11,0,0,0-3.85-4A11.25,11.25,0,0,0,95.19,170Zm0,19.16a7.52,7.52,0,0,1-4-1,6.79,6.79,0,0,1-2.55-2.79,9.61,9.61,0,0,1,0-8.09,6.8,6.8,0,0,1,2.55-2.79,8.27,8.27,0,0,1,8,0,6.77,6.77,0,0,1,2.56,2.79,9.61,9.61,0,0,1,0,8.09,6.77,6.77,0,0,1-2.56,2.79,7.53,7.53,0,0,1-4,1Z"/><path class="cls-1" d="M125,189.64a1.26,1.26,0,0,1,.38.92,1.21,1.21,0,0,1-.38.91,1.28,1.28,0,0,1-.92.36H110.63a1.76,1.76,0,0,1-1.76-1.76,1.73,1.73,0,0,1,.36-1.12l12.65-15.62H110.23a1.29,1.29,0,0,1-1.3-1.3,1.3,1.3,0,0,1,.38-.94,1.23,1.23,0,0,1,.92-.39h13.13a1.74,1.74,0,0,1,1.35.54,1.9,1.9,0,0,1,.5,1.33,1.68,1.68,0,0,1-.14.64,2,2,0,0,1-.35.57l-12.5,15.46h11.86A1.26,1.26,0,0,1,125,189.64Z"/><path class="cls-1" d="M123.37,170.71a1.74,1.74,0,0,1,1.35.54,1.9,1.9,0,0,1,.5,1.33,1.68,1.68,0,0,1-.14.64,2,2,0,0,1-.35.57l-12.5,15.46h11.86a1.29,1.29,0,0,1,1.3,1.3,1.21,1.21,0,0,1-.38.91,1.28,1.28,0,0,1-.92.36H110.63a1.76,1.76,0,0,1-1.76-1.76,1.73,1.73,0,0,1,.36-1.12l12.65-15.62H110.23a1.29,1.29,0,0,1-1.3-1.3,1.3,1.3,0,0,1,.38-.94,1.23,1.23,0,0,1,.92-.39h13.13m0-.43H110.23a1.65,1.65,0,0,0-1.23.52,1.72,1.72,0,0,0-.5,1.23,1.72,1.72,0,0,0,1.73,1.73H121L108.9,188.69a2.16,2.16,0,0,0-.46,1.39,2.18,2.18,0,0,0,2.18,2.18h13.47a1.7,1.7,0,0,0,1.22-.48,1.62,1.62,0,0,0,.51-1.22,1.72,1.72,0,0,0-1.73-1.73h-11l11.94-14.77a2.44,2.44,0,0,0,.41-.68,2.11,2.11,0,0,0,.17-.8A2.32,2.32,0,0,0,125,171a2.15,2.15,0,0,0-1.66-.68Z"/></svg>